<svg xmlns="http://www.w3.org/2000/svg" width="512" height="512" viewBox="0 0 512 512">
  <defs>
    <linearGradient id="bg" x1="0" y1="0" x2="1" y2="1">
      <stop offset="0" stop-color="#e02437"/>
      <stop offset="1" stop-color="#b3121f"/>
    </linearGradient>
    <radialGradient id="glow" cx="0.32" cy="0.28" r="0.75">
      <stop offset="0" stop-color="#ffffff" stop-opacity="0.18"/>
      <stop offset="1" stop-color="#ffffff" stop-opacity="0"/>
    </radialGradient>
  </defs>
  <rect width="512" height="512" fill="url(#bg)"/>
  <rect width="512" height="512" fill="url(#glow)"/>
  <g transform="translate(256,256) scale(1) translate(-256,-256)">
    <!-- ringing signal arcs, upper-right, ReDEFINE blue accent -->
    <g fill="none" stroke-linecap="round">
      <path d="M321 170 A 52 52 0 0 1 360 232" stroke="#cfe0ff" stroke-opacity="0.85" stroke-width="15"/>
      <path d="M335 146 A 82 82 0 0 1 392 244" stroke="#9bc0ff" stroke-opacity="0.6" stroke-width="15"/>
    </g>
    <!-- phone handset -->
    <g transform="translate(98,96) scale(13)">
      <path d="M6.62 10.79c1.44 2.83 3.76 5.14 6.59 6.59l2.2-2.2c.27-.27.67-.36 1.02-.24 1.12.37 2.33.57 3.57.57.55 0 1 .45 1 1V20c0 .55-.45 1-1 1-9.39 0-17-7.61-17-17 0-.55.45-1 1-1h3.5c.55 0 1 .45 1 1 0 1.25.2 2.45.57 3.57.11.35.03.74-.25 1.02l-2.2 2.2z" fill="#ffffff"/>
    </g>
  </g>
</svg>